<?xml version="1.0" encoding="UTF-8"?><svg id="Calque_1" xmlns="http://www.w3.org/2000/svg" viewBox="0 0 1920 1080"><defs><style>.cls-1{fill:#240f0c;}</style></defs><path class="cls-1" d="M179.13,424.88l8.73-9.43,177.14,226.75v-226.75h4.19v248.07h-3.84l-.35-.35-182.03-233.04v233.74h-4.19v-238.98h.35Z"/><path class="cls-1" d="M488.68,487.07c12.58,.23,24.4,2.68,35.46,7.34,11.06,4.66,20.61,11.01,28.65,19.04,8.04,8.04,14.38,17.53,19.04,28.48,4.66,10.95,6.99,22.71,6.99,35.29s-2.39,23.47-7.16,34.07c-4.78,10.6-11.24,19.8-19.39,27.6-8.16,7.81-17.7,14.04-28.65,18.69-10.95,4.66-22.6,6.99-34.94,6.99-12.58,.23-24.46-1.98-35.64-6.64-11.18-4.66-20.85-10.95-29-18.87-8.16-7.92-14.62-17.23-19.39-27.95-4.78-10.71-7.16-22.01-7.16-33.89s2.39-24.05,7.16-35.11c4.77-11.06,11.23-20.67,19.39-28.82,8.15-8.15,17.82-14.61,29-19.39,11.18-4.77,23.06-7.04,35.64-6.81Zm0,174.34c11.65,0,22.24-2.27,31.79-6.81,9.55-4.54,17.7-10.71,24.46-18.52,6.75-7.8,11.99-16.89,15.72-27.25,3.72-10.36,5.7-21.37,5.94-33.02,.23-11.18-1.46-21.89-5.07-32.14-3.61-10.25-8.85-19.33-15.72-27.25-6.87-7.92-15.14-14.27-24.81-19.04-9.67-4.77-20.44-7.16-32.32-7.16s-22.66,2.27-32.32,6.81c-9.67,4.54-17.99,10.72-24.98,18.52-6.99,7.81-12.35,17.01-16.07,27.6-3.73,10.6-5.59,22.07-5.59,34.41,0,11.41,1.92,22.19,5.77,32.32,3.84,10.13,9.26,19.04,16.25,26.73,6.99,7.69,15.31,13.75,24.98,18.17,9.66,4.43,20.32,6.64,31.97,6.64Z"/><path class="cls-1" d="M719.97,663.51v-121.94c0-7.69-1.52-14.79-4.54-21.31-3.03-6.52-7.05-12.05-12.05-16.6-5.01-4.54-10.83-8.09-17.47-10.66-6.64-2.56-13.45-3.84-20.44-3.84-10.48-.23-20.67,1.98-30.57,6.64-9.9,4.66-17.53,11.53-22.88,20.61v147.09h-11.88v-174.69l11.88-5.94v26.55c6.05-7.92,14.03-13.86,23.93-17.82,9.9-3.96,19.74-5.94,29.52-5.94,7.45,0,15.02,1.28,22.71,3.84,7.69,2.57,14.79,6.23,21.31,11.01,6.52,4.78,11.82,10.6,15.9,17.47,4.07,6.87,6.12,14.73,6.12,23.58v121.94h-11.53Z"/><path class="cls-1" d="M910.74,658.62c-2.33,2.1-4.6,3.55-6.81,4.37-2.22,.81-4.6,1.22-7.16,1.22-3.49,0-6.87-.81-10.13-2.45-3.26-1.63-6.23-3.67-8.91-6.11-2.68-2.45-4.95-5.3-6.81-8.56-1.87-3.26-3.14-6.4-3.84-9.43-6.29,8.16-14.27,14.62-23.93,19.39-9.67,4.78-19.74,7.16-30.22,7.16-8.62,0-16.6-1.45-23.93-4.37-7.34-2.91-13.69-6.93-19.04-12.05-5.36-5.12-9.55-11.12-12.58-17.99-3.03-6.87-4.54-14.27-4.54-22.19s1.57-15.25,4.72-22.01c3.15-6.75,7.39-12.63,12.75-17.64,5.35-5.01,11.76-8.91,19.22-11.7,7.45-2.8,15.49-4.19,24.11-4.19,10.48,0,20.38,2.04,29.7,6.11,9.31,4.08,17,9.73,23.06,16.95v-42.28c0-6.05-1.17-11.64-3.49-16.77-2.33-5.12-5.54-9.55-9.61-13.28-4.08-3.72-8.91-6.64-14.5-8.73-5.59-2.1-11.65-3.14-18.17-3.14-11.88,0-21.72,3.32-29.52,9.96-7.81,6.64-12.64,16.6-14.5,29.87l-11.18,5.94c0-6.99,1.45-13.45,4.37-19.39,2.91-5.94,6.93-11.12,12.05-15.55,5.12-4.42,11.01-7.92,17.64-10.48,6.64-2.56,13.68-3.84,21.14-3.84s15.02,1.34,22.01,4.02c6.99,2.68,13.16,6.23,18.52,10.66,5.36,4.43,9.61,9.55,12.75,15.37,3.14,5.82,4.72,12,4.72,18.52v95.03c0,7.69,1.69,14.56,5.07,20.61,3.37,6.06,7.97,9.08,13.8,9.08,4.42,0,8.74-1.75,12.93-5.24l.35,3.15Zm-44.37-27.6v-49.26c-5.36-8.15-12.75-14.55-22.19-19.22-9.43-4.66-19.39-6.99-29.87-6.99-14.67,0-26.44,4.66-35.29,13.98-8.85,9.32-13.28,21.66-13.28,37.04,0,7.69,1.16,14.85,3.49,21.49,2.33,6.64,5.64,12.4,9.96,17.29,4.31,4.89,9.43,8.68,15.37,11.36,5.94,2.68,12.4,4.02,19.39,4.02,10.48,0,20.44-2.73,29.87-8.21,9.43-5.47,16.95-12.63,22.54-21.49Z"/><path class="cls-1" d="M1071.1,665.6l-98.53-237.23,11.18-11.88,96.08,240.73-8.73,8.39Zm89.09-249.81l-80.36,241.43-3.84-1.05,79.66-240.38h4.54Z"/><path class="cls-1" d="M1350.26,563.93h-156.18c-.47,2.33-.7,4.6-.7,6.81v7.16c0,11.18,1.8,21.78,5.42,31.79,3.61,10.02,8.68,18.81,15.2,26.38,6.52,7.57,14.33,13.57,23.41,17.99,9.08,4.43,19.22,6.64,30.4,6.64,17.93,0,32.37-4.95,43.32-14.85,10.95-9.9,19.68-23.23,26.2-40l12.93-4.19c-2.57,9.08-6.52,17.42-11.88,24.98-5.36,7.57-11.65,14.15-18.87,19.74-7.22,5.59-15.26,9.96-24.11,13.1-8.85,3.15-18.05,4.72-27.6,4.72-11.88,0-23.12-2.27-33.72-6.81-10.6-4.54-19.8-10.77-27.6-18.69-7.81-7.92-13.98-17.17-18.52-27.78-4.54-10.6-6.81-21.84-6.81-33.72s2.21-23.93,6.64-34.76c4.42-10.83,10.54-20.32,18.34-28.48,7.8-8.15,16.89-14.55,27.25-19.22,10.36-4.66,21.49-6.99,33.37-6.99,10.95,.24,21.19,2.27,30.75,6.11,9.55,3.84,17.99,9.14,25.33,15.9,7.34,6.76,13.39,14.73,18.17,23.93,4.77,9.2,7.86,19.28,9.26,30.22Zm-11.53-3.14c-1.4-9.55-4.08-18.52-8.04-26.9-3.96-8.39-9.03-15.72-15.2-22.01-6.17-6.29-13.34-11.3-21.49-15.02-8.16-3.72-17.12-5.59-26.9-5.59s-18.81,1.75-27.08,5.24c-8.27,3.49-15.55,8.33-21.84,14.5-6.29,6.17-11.48,13.51-15.55,22.01-4.08,8.51-6.81,17.76-8.21,27.78h144.3Z"/><path class="cls-1" d="M1569.32,658.62c-4.66,3.26-9.2,4.89-13.63,4.89s-8.56-1.4-12.4-4.19c-3.84-2.8-7.11-6.23-9.78-10.31-2.68-4.07-4.78-8.56-6.29-13.45-1.52-4.89-2.27-9.43-2.27-13.63-7.46,12.81-17.7,23.06-30.75,30.75-13.05,7.69-27.37,11.65-42.97,11.88-12.11,.23-23.41-1.98-33.89-6.64-10.48-4.66-19.69-10.95-27.6-18.87-7.92-7.92-14.15-17.23-18.69-27.95-4.54-10.71-6.81-22.01-6.81-33.89s2.27-24.05,6.81-35.11c4.54-11.06,10.77-20.67,18.69-28.82,7.92-8.15,17.12-14.61,27.6-19.39,10.48-4.77,21.78-7.04,33.89-6.81,16.07,.23,30.51,4.25,43.32,12.05,12.81,7.81,22.94,18.23,30.4,31.27v-111.45l12.23-4.54v216.62c0,7.92,1.98,14.67,5.94,20.26,3.96,5.59,8.74,8.39,14.33,8.39,3.96,0,7.8-1.4,11.53-4.19l.35,3.15Zm-44.37-119.84c-1.87-4.42-4.89-9.43-9.08-15.02-4.19-5.59-9.38-10.83-15.55-15.72-6.17-4.89-13.34-9.08-21.49-12.58-8.16-3.49-17.35-5.24-27.6-5.24-11.18,0-21.37,2.27-30.57,6.81-9.2,4.54-17.07,10.72-23.58,18.52-6.52,7.81-11.59,17.01-15.2,27.6-3.61,10.6-5.42,22.07-5.42,34.41,0,11.41,1.8,22.19,5.42,32.32,3.61,10.13,8.68,19.04,15.2,26.73,6.52,7.69,14.38,13.75,23.58,18.17,9.2,4.43,19.39,6.64,30.57,6.64,10.25,0,19.57-1.8,27.95-5.42,8.39-3.61,15.72-7.97,22.01-13.1,6.29-5.12,11.47-10.42,15.55-15.9,4.07-5.47,6.81-10.07,8.21-13.8v-74.42Z"/><path class="cls-1" d="M1741.22,658.62c-2.33,2.1-4.6,3.55-6.81,4.37-2.22,.81-4.6,1.22-7.16,1.22-3.49,0-6.87-.81-10.13-2.45-3.26-1.63-6.23-3.67-8.91-6.11-2.68-2.45-4.95-5.3-6.81-8.56-1.87-3.26-3.14-6.4-3.84-9.43-6.29,8.16-14.27,14.62-23.93,19.39-9.67,4.78-19.74,7.16-30.22,7.16-8.62,0-16.6-1.45-23.93-4.37-7.34-2.91-13.69-6.93-19.04-12.05-5.36-5.12-9.55-11.12-12.58-17.99-3.03-6.87-4.54-14.27-4.54-22.19s1.57-15.25,4.72-22.01c3.15-6.75,7.39-12.63,12.75-17.64,5.35-5.01,11.76-8.91,19.22-11.7,7.45-2.8,15.49-4.19,24.11-4.19,10.48,0,20.38,2.04,29.7,6.11,9.31,4.08,17,9.73,23.06,16.95v-42.28c0-6.05-1.17-11.64-3.49-16.77-2.33-5.12-5.54-9.55-9.61-13.28-4.08-3.72-8.91-6.64-14.5-8.73-5.59-2.1-11.65-3.14-18.17-3.14-11.88,0-21.72,3.32-29.52,9.96-7.81,6.64-12.64,16.6-14.5,29.87l-11.18,5.94c0-6.99,1.45-13.45,4.37-19.39,2.91-5.94,6.93-11.12,12.05-15.55,5.12-4.42,11.01-7.92,17.64-10.48,6.64-2.56,13.68-3.84,21.14-3.84s15.02,1.34,22.01,4.02c6.99,2.68,13.16,6.23,18.52,10.66,5.36,4.43,9.61,9.55,12.75,15.37,3.14,5.82,4.72,12,4.72,18.52v95.03c0,7.69,1.69,14.56,5.07,20.61,3.37,6.06,7.97,9.08,13.8,9.08,4.42,0,8.74-1.75,12.93-5.24l.35,3.15Zm-44.37-27.6v-49.26c-5.36-8.15-12.75-14.55-22.19-19.22-9.43-4.66-19.39-6.99-29.87-6.99-14.67,0-26.44,4.66-35.29,13.98-8.85,9.32-13.28,21.66-13.28,37.04,0,7.69,1.16,14.85,3.49,21.49,2.33,6.64,5.64,12.4,9.96,17.29,4.31,4.89,9.43,8.68,15.37,11.36,5.94,2.68,12.4,4.02,19.39,4.02,10.48,0,20.44-2.73,29.87-8.21,9.43-5.47,16.95-12.63,22.54-21.49Z"/><rect class="cls-1" x="663.21" y="423.24" width="5.21" height="55.03" transform="translate(215.07 1116.57) rotate(-90)"/></svg>